<?xml version="1.0" encoding="UTF-8" standalone="no"?>
<svg
   xmlns:dc="http://purl.org/dc/elements/1.1/"
   xmlns:cc="http://creativecommons.org/ns#"
   xmlns:rdf="http://www.w3.org/1999/02/22-rdf-syntax-ns#"
   xmlns:svg="http://www.w3.org/2000/svg"
   xmlns="http://www.w3.org/2000/svg"
   xmlns:sodipodi="http://sodipodi.sourceforge.net/DTD/sodipodi-0.dtd"
   xmlns:inkscape="http://www.inkscape.org/namespaces/inkscape"
   height="512"
   width="512"
   version="1.1"
   id="svg670"
   sodipodi:docname="starship.svg"
   inkscape:version="0.92.3 (unknown)"
   class="img-fluid replaced-svg"
   viewBox="0 0 512 512">
  <metadata
     id="metadata676">
    <rdf:RDF>
      <cc:Work
         rdf:about="">
        <dc:format>image/svg+xml</dc:format>
        <dc:type
           rdf:resource="http://purl.org/dc/dcmitype/StillImage" />
      </cc:Work>
    </rdf:RDF>
  </metadata>
  <defs
     id="defs674" />
  <sodipodi:namedview
     pagecolor="#ffffff"
     bordercolor="#666666"
     borderopacity="1"
     objecttolerance="10"
     gridtolerance="10"
     guidetolerance="10"
     inkscape:pageopacity="0"
     inkscape:pageshadow="2"
     inkscape:window-width="1366"
     inkscape:window-height="768"
     id="namedview672"
     showgrid="false"
     inkscape:zoom="1.3417969"
     inkscape:cx="296.42616"
     inkscape:cy="226.18923"
     inkscape:window-x="0"
     inkscape:window-y="0"
     inkscape:window-maximized="1"
     inkscape:current-layer="svg670" />
  <g
     style=""
     id="pink-bars">
    <path
       id="path608"
       d="m 470.023,353.127 c -5.742,-5.741 -12.449,-9.92 -19.596,-12.566 V 194.875 c 0,-5.216 -4.268,-9.485 -9.484,-9.485 -5.216,0 -9.486,4.269 -9.486,9.485 v 142.278 c -5.502,0 -11,0.842 -16.299,2.496 v -98.533 c 0,-5.217 -4.27,-9.485 -9.486,-9.485 -2.758,0 -5.242,1.2 -6.979,3.095 v -63.682 c 0,-7.108 -5.816,-12.924 -12.924,-12.924 -0.359,0 -0.715,0.025 -1.066,0.055 v -37.109 c 0,-5.217 -4.27,-9.485 -9.486,-9.485 -5.216,0 -9.484,4.269 -9.484,9.485 v 240.848 c -6.881,5.009 -12.104,11.963 -15.006,19.898 -0.072,-0.74 -0.188,-1.484 -0.33,-2.229 V 192.385 c 0,-7.108 -5.816,-12.924 -12.924,-12.924 -7.108,0 -12.924,5.815 -12.924,12.924 v 168.704 c -0.643,0.089 -1.287,0.2 -1.932,0.346 -5.502,1.243 -10.096,4.354 -13.27,8.511 -0.053,-0.382 -0.094,-0.763 -0.156,-1.146 -4.131,-25.458 -28.119,-42.746 -53.577,-38.615 -18.157,2.946 -32.151,15.996 -37.19,32.473 -5.03,-10.191 -15.521,-17.203 -27.655,-17.203 -5.616,0 -10.879,1.505 -15.413,4.13 v -116.77 c 0,-9.129 -7.47,-16.599 -16.599,-16.599 -9.13,0 -16.599,7.47 -16.599,16.599 v 133.894 c -1.577,0.23 -3.117,0.574 -4.607,1.032 -2.174,-3.507 -4.767,-6.827 -7.811,-9.871 -0.946,-0.946 -1.928,-1.836 -2.924,-2.698 v -165.04 c 0,-5.217 -4.269,-9.485 -9.485,-9.485 -5.216,0 -9.485,4.269 -9.485,9.485 v 154.379 c -4.653,-1.49 -9.463,-2.35 -14.299,-2.559 v -105.58 c 0,-5.217 -4.269,-9.485 -9.485,-9.485 -5.216,0 -9.485,4.269 -9.485,9.485 v 108.115 c -8.033,2.56 -15.594,7.011 -21.966,13.383 -21.299,21.3 -21.299,55.832 0,77.131 21.299,21.3 55.832,21.3 77.131,0 2.674,-2.674 5.011,-5.557 7.014,-8.596 3.103,1.05 6.423,1.628 9.881,1.628 0.046,0 0.091,-0.005 0.138,-0.006 3.028,3.172 7.281,5.164 11.984,5.164 1.737,0 3.413,-0.274 4.99,-0.775 20.67,6.297 50.687,10.26 84.095,10.26 37.3,0 70.37,-4.939 90.929,-12.553 4.063,3.549 9.377,5.704 15.195,5.704 4.824,0 9.301,-1.478 13.006,-4.004 9.119,6.147 20.592,8.794 32.229,6.467 0.959,-0.192 1.9,-0.425 2.83,-0.678 21.113,13.558 49.523,11.114 67.992,-7.354 21.297,-21.299 21.297,-55.831 -0.002,-77.131 z"
       inkscape:connector-curvature="0"
       style="fill:#fd558e" />
    <ellipse
       id="ellipse610"
       ry="23.120001"
       rx="161.248"
       cy="445.64099"
       cx="261.31601"
       style="fill:#fd4e8e;fill-opacity:0.95420012" />
  </g>
  <g
     id="blue-bars"
     transform="translate(10,6)">
    <path
       id="path612"
       d="m 470.023,353.127 c -5.742,-5.741 -12.449,-9.92 -19.596,-12.566 V 194.875 c 0,-5.216 -4.268,-9.485 -9.484,-9.485 -5.216,0 -9.486,4.269 -9.486,9.485 v 142.278 c -5.502,0 -11,0.842 -16.299,2.496 v -98.533 c 0,-5.217 -4.27,-9.485 -9.486,-9.485 -5.215,0 -9.484,4.269 -9.484,9.485 V 350.11 c -1.127,0.958 -2.232,1.953 -3.295,3.017 -0.215,0.214 -0.412,0.438 -0.621,0.653 -2.494,-0.083 -5.023,0.044 -7.568,0.415 V 121.064 c 0,-5.217 -4.27,-9.485 -9.486,-9.485 -5.216,0 -9.484,4.269 -9.484,9.485 v 240.848 c -6.881,5.009 -12.104,11.963 -15.006,19.898 -0.094,-0.97 -0.242,-1.943 -0.461,-2.92 -2.814,-12.455 -15.193,-20.271 -27.648,-17.456 -5.502,1.243 -10.096,4.354 -13.27,8.511 -0.053,-0.382 -0.094,-0.763 -0.156,-1.146 -4.131,-25.458 -28.119,-42.746 -53.577,-38.615 -18.157,2.946 -32.151,15.996 -37.19,32.473 -5.03,-10.191 -15.521,-17.203 -27.655,-17.203 -14.783,0 -27.13,10.408 -30.127,24.295 -4.204,-2.148 -8.961,-3.369 -14.007,-3.369 -3.162,0 -6.212,0.479 -9.084,1.362 -2.174,-3.507 -4.767,-6.827 -7.811,-9.871 -0.946,-0.946 -1.928,-1.836 -2.924,-2.698 v -165.04 c 0,-5.217 -4.269,-9.485 -9.485,-9.485 -5.216,0 -9.485,4.269 -9.485,9.485 v 154.379 c -4.653,-1.49 -9.463,-2.35 -14.299,-2.559 v -105.58 c 0,-5.217 -4.269,-9.485 -9.485,-9.485 -5.216,0 -9.485,4.269 -9.485,9.485 v 108.115 c -8.033,2.56 -15.594,7.011 -21.966,13.383 -21.299,21.3 -21.299,55.832 0,77.131 21.299,21.3 55.832,21.3 77.131,0 2.674,-2.674 5.011,-5.557 7.014,-8.596 3.103,1.05 6.423,1.628 9.881,1.628 1.493,0 2.958,-0.112 4.395,-0.317 19.747,8.964 55.713,14.96 96.813,14.96 37.3,0 70.37,-4.939 90.929,-12.553 4.063,3.549 9.377,5.704 15.195,5.704 4.824,0 9.301,-1.478 13.006,-4.004 9.119,6.147 20.592,8.794 32.229,6.467 0.959,-0.192 1.9,-0.425 2.83,-0.678 21.113,13.558 49.523,11.114 67.992,-7.354 21.294,-21.3 21.294,-55.832 -0.005,-77.132 z"
       inkscape:connector-curvature="0"
       style="fill:#415298" />
  </g>
  <g
     id="ship">
    <path
       id="path614"
       d="M 279.375,306.554 H 243.26 l -8.934,101.249 h 53.981 z"
       inkscape:connector-curvature="0"
       style="fill:#ff7143" />
    <path
       id="path616"
       d="m 252.254,306.554 -7.397,101.249 h 32.918 l -7.396,-101.249 z"
       inkscape:connector-curvature="0"
       style="fill:#ffd800" />
    <path
       id="path618"
       d="m 239.976,289.914 h 42.683 v 16.64 h -42.683 z"
       inkscape:connector-curvature="0"
       style="fill:#52c9d5" />
    <path
       id="path620"
       d="m 239.976,289.914 h 42.683 v 16.64 h -42.683 z"
       inkscape:connector-curvature="0"
       style="fill:#52c9d5" />
    <path
       id="path622"
       d="m 240.101,318.129 h -33.279 l 5.842,-40.652 18.032,-28.799 h 9.405 z"
       inkscape:connector-curvature="0"
       style="fill:#dddddd" />
    <path
       id="path624"
       d="m 282.533,318.129 h 33.278 l -5.842,-40.652 -18.031,-28.799 h -9.405 z"
       inkscape:connector-curvature="0"
       style="fill:#c6c6c6" />
    <path
       id="path626"
       d="m 261.361,30.2 v -0.003 c -0.016,0 -0.029,0.001 -0.045,0.001 -0.016,0 -0.029,-0.001 -0.045,-0.001 V 30.2 c -23.332,0.09 -42.231,74.63 -42.231,135.282 0,36.209 8.134,100.243 20.256,124.432 h 44.04 c 12.123,-24.189 20.258,-88.223 20.258,-124.432 0,-60.652 -18.901,-135.192 -42.233,-135.282 z"
       inkscape:connector-curvature="0"
       style="fill:#f4f4f4" />
    <circle
       id="circle628"
       r="25.506001"
       cy="174.222"
       cx="261.31699"
       style="fill:#fd568e" />
    <circle
       id="circle630"
       r="17.57"
       cy="174.222"
       cx="261.31601"
       style="fill:#ffffff" />
    <path
       id="path632"
       d="m 239.976,289.914 h 42.683 v 16.64 h -42.683 z"
       inkscape:connector-curvature="0"
       style="fill:#52c9d5" />
    <path
       id="path634"
       d="m 261.316,30.199 c -0.016,0 -0.029,-0.001 -0.045,-0.001 V 30.2 c -17.46,0.067 -32.437,41.827 -38.87,88.258 H 300.23 C 293.798,72.026 278.822,30.267 261.361,30.2 v -0.003 c -0.015,0 -0.029,0.002 -0.045,0.002 z"
       inkscape:connector-curvature="0"
       style="fill:#fd598e;fill-opacity:0.86619999" />
    <path
       id="path636"
       d="m 261.551,289.914 h 21.107 v 16.64 h -21.107 z"
       inkscape:connector-curvature="0"
       style="fill:#49bac0" />
    <path
       id="path638"
       d="m 261.551,30.21 v 259.704 h 21.785 c 12.123,-24.189 20.258,-88.223 20.258,-124.432 0,-60.488 -18.799,-134.782 -42.043,-135.272 z"
       inkscape:connector-curvature="0"
       style="fill:#e0e0e0" />
    <path
       id="path640"
       d="m 261.551,148.723 v 50.999 c 13.977,-0.126 25.271,-11.492 25.271,-25.5 0,-14.008 -11.295,-25.373 -25.271,-25.499 z"
       inkscape:connector-curvature="0"
       style="fill:#fd568e" />
    <path
       id="path642"
       d="m 261.551,156.663 v 35.117 c 9.594,-0.126 17.336,-7.934 17.336,-17.559 0,-9.625 -7.742,-17.431 -17.336,-17.558 z"
       inkscape:connector-curvature="0"
       style="fill:#f4f4f4" />
    <path
       id="path644"
       d="m 261.551,118.458 h 38.68 C 293.821,72.193 278.93,30.573 261.551,30.207 Z"
       inkscape:connector-curvature="0"
       style="fill:#fd378e;fill-opacity:0.86969999" />
  </g>
  <ellipse
     cx="158.312"
     cy="326.781"
     fill="#466C6F"
     id="ellipse648" />
  <g
     id="bubbles">
    <circle
       id="circle646"
       r="9.485"
       cy="450.976"
       cx="25.076"
       fill="#466C6F" />
    <circle
       id="circle650"
       r="9.485"
       cy="466.39"
       cx="370.102"
       fill="#466C6F" />
    <circle
       id="circle652"
       r="12.814"
       cy="390.561"
       cx="200.134"
       fill="#5AA096" />
    <circle
       id="circle654"
       r="6.828"
       cy="412.156"
       cx="266.986"
       fill="#5AA096" />
    <circle
       id="circle656"
       r="9.485"
       cy="409.854"
       cx="72.994"
       fill="#66B2B2" />
    <circle
       id="circle658"
       r="9.486"
       cy="409.232"
       cx="459.606"
       fill="#66B2B2" />
    <circle
       id="circle660"
       r="16.006"
       cy="405.124"
       cx="320.383"
       fill="#5AA096" />
    <path
       id="path662"
       d="M445.982 424.892c-2.477 0-4.869.353-7.139.997.01-.332.025-.662.025-.997 0-18.99-15.395-34.384-34.385-34.384-18.988 0-34.383 15.394-34.383 34.384 0 18.989 15.395 34.384 34.383 34.384 5.699 0 11.068-1.395 15.801-3.848 2.113 12.283 12.811 21.633 25.697 21.633 14.406 0 26.084-11.679 26.084-26.085s-11.676-26.084-26.083-26.084z"
       fill="#5AA096" />
    <circle
       id="circle664"
       r="18.971"
       cy="462.832"
       cx="211.224"
       fill="#5AA096" />
    <path
       id="path666"
       d="M164.339 414.839c-7.408-7.408-19.419-7.408-26.828 0a18.992 18.992 0 0 0-3.333 4.503c-7.359-6.02-17.16-8.981-27.282-7.339-18.745 3.042-31.474 20.704-28.432 39.448 3.042 18.744 20.703 31.474 39.448 28.432 16.619-2.697 28.5-16.889 28.863-33.135 6.126 1.368 12.797-.313 17.564-5.081 7.409-7.408 7.409-19.419 0-26.828z"
       fill="#5AA096" />
  </g>
  <g
     id="stars">
    <path
       id="path668"
       d="m 170.606,118.445 5.193,10.521 11.61,1.687 -8.401,8.189 1.983,11.564 -10.385,-5.46 -10.385,5.46 1.984,-11.564 -8.402,-8.189 11.611,-1.687 z m 308.999,130 5.194,10.521 11.609,1.686 -8.4,8.19 1.982,11.564 -10.385,-5.46 -10.384,5.46 1.984,-11.564 -8.402,-8.19 11.611,-1.686 z m -444.999,31 5.193,10.521 11.61,1.686 -8.401,8.19 1.983,11.564 -10.385,-5.46 -10.385,5.46 1.984,-11.564 -8.402,-8.19 11.611,-1.686 z"
       inkscape:connector-curvature="0"
       style="fill:#ffd326" />
  </g>
</svg>
