<svg xmlns="http://www.w3.org/2000/svg" width="210mm" height="297mm" viewBox="0 0 210 297">
    <g fill="none" stroke="#fff" stroke-width="9.26" stroke-linecap="round">
        <path d="M68.257 36.348v64.256M121.708 245.595v-40.821" stroke-linejoin="bevel"/>
        <path d="M121.708 204.774c7.812-6.804 15.624-13.608 19.53-24.317 3.905-10.71 3.905-25.324 3.905-39.94"
              stroke-linejoin="bevel" paint-order="stroke fill markers"/>
        <ellipse cx="107.723" cy="132.958" rx="17.28" ry="38.825" stroke-linejoin="bevel"/>
        <path d="M88.446 210.065c-8.063-7.055-16.127-14.11-20.032-23.812-3.906-9.702-3.654-22.049-3.402-34.396"
              stroke-linejoin="bevel" paint-order="stroke fill markers"/>
        <path d="M156.482 109.524l36.286-40.066 7.56 24.19-40.066 66.525" stroke-linejoin="round"
              paint-order="stroke fill markers"/>
        <path d="M156.482 109.524V31.869h-105.7v162.5l-34.285-19.794-3.528 13.168 35.582 35.583v33.584h111.81v-97.821M121.34 73.563V32.938"
              stroke-linejoin="round" paint-order="stroke fill markers"/>
    </g>
</svg>