<?xml version="1.0" encoding="iso-8859-1"?>
<!-- Generator: Adobe Illustrator 19.0.0, SVG Export Plug-In . SVG Version: 6.00 Build 0)  -->
<svg version="1.1" id="Capa_1" xmlns="http://www.w3.org/2000/svg" xmlns:xlink="http://www.w3.org/1999/xlink" x="0px" y="0px"
	 viewBox="0 0 512.001 512.001" style="enable-background:new 0 0 512.001 512.001;" xml:space="preserve">
<g>
	<path style="fill:none;" d="M279.175,200.037c0.015,0.029,0.024,0.061,0.038,0.091C279.242,200.08,279.234,200.048,279.175,200.037
		z"/>
	<path style="fill:#FF4F19;" d="M316.305,136.002c2.801-4.831,6.827-8.862,11.653-11.671c-1.8-84.377-65.239-121.703-67.98-123.271
		C258.743,0.354,257.372,0,256.001,0v136.002H316.305z"/>
	<path style="fill:#E5001E;" d="M195.696,136.002h60.304V0c-1.371,0-2.742,0.354-3.977,1.061
		c-2.742,1.567-66.18,38.894-67.98,123.271C188.87,127.14,192.895,131.171,195.696,136.002z"/>
	<path style="fill:#5C546A;" d="M256.001,152.002v-16h-60.304c2.732,4.71,4.304,10.173,4.304,16v16v92.708
		c0.138-0.141,0.267-0.287,0.406-0.426l15.594-15.594v-52.688C216.001,169.947,233.946,152.002,256.001,152.002z"/>
	<path style="fill:#888693;" d="M344.001,340.673c0.135,0.138,0.262,0.282,0.398,0.419l31.195,31.191
		c0.139,0.139,0.269,0.286,0.406,0.426V168.002h-32V340.673z"/>
	<path style="fill:#B6B8BE;" d="M376.001,168.002v-16c0-17.645-14.352-32-32-32v48H376.001z"/>
	<path style="fill:#888693;" d="M168.001,168.002v172.671c10.313-10.53,16-24.415,16-39.179v-1.609c0-14.768,5.685-28.65,16-39.175
		v-92.708H168.001z"/>
	<path style="fill:#5C546A;" d="M167.602,341.092c0.137-0.137,0.263-0.281,0.398-0.419V168.002h-32v204.708
		c0.138-0.141,0.267-0.287,0.406-0.426L167.602,341.092z"/>
	<path style="fill:#5C546A;" d="M312.001,168.002v92.708c10.315,10.525,16,24.407,16,39.175v1.609c0,14.764,5.688,28.649,16,39.179
		V168.002H312.001z"/>
	<path style="fill:#B6B8BE;" d="M200.001,168.002v-16c0-5.827-1.573-11.29-4.304-16c-2.801-4.831-6.827-8.862-11.653-11.671
		c-4.72-2.747-10.198-4.329-16.043-4.329v48H200.001z"/>
	<path style="fill:#5C546A;" d="M144.241,489.941c0.89,3.562,4.09,6.06,7.761,6.06h31.996c3.671,0,6.871-2.499,7.761-6.06
		l6.484-25.94h-60.487L144.241,489.941z"/>
	<path style="fill:#5C546A;" d="M320.24,489.941c0.89,3.562,4.09,6.06,7.761,6.06h31.996c3.671,0,6.871-2.499,7.761-6.06
		l6.484-25.94h-60.487L320.24,489.941z"/>
	<path style="fill:#D5D9DE;" d="M208.022,416.002c0.32-4.168,3.796-7.387,7.976-7.387h0.002V244.689l-15.594,15.594
		c-0.139,0.139-0.269,0.286-0.406,0.426c-10.315,10.525-16,24.407-16,39.175v1.609c0,14.764-5.688,28.649-16,39.179
		c-0.135,0.138-0.262,0.282-0.398,0.419l-31.195,31.191c-0.139,0.139-0.269,0.286-0.406,0.426c-10.315,10.525-16,24.407-16,39.175
		v12.117h87.289L208.022,416.002z"/>
	<path style="fill:#FF4F19;" d="M120.001,424.002v32c0,4.417,3.578,8,8,8h9.757h60.487h5.385l3.661-40H120.001z"/>
	<path style="fill:#D5D9DE;" d="M376.001,372.709c-0.138-0.141-0.267-0.287-0.406-0.426l-31.195-31.191
		c-0.137-0.137-0.263-0.281-0.398-0.419c-10.313-10.53-16-24.415-16-39.179v-1.609c0-14.768-5.685-28.65-16-39.175
		c-0.138-0.141-0.267-0.287-0.406-0.426l-15.594-15.594v163.926h0.002c4.18,0,7.656,3.218,7.977,7.387l0.732,8h87.289v-12.117
		C392.001,397.117,386.316,383.234,376.001,372.709z"/>
	<path style="fill:#FF4F19;" d="M308.373,464.001h5.384h60.487h9.758c4.422,0,8-3.582,8-8v-32h-87.289L308.373,464.001z"/>
	<path style="fill:#E3E6E9;" d="M256.001,152.002c-22.055,0-40,17.945-40,40v52.688v163.926h16V248.002V203.78
		c0-0.02,0-0.039,0-0.058c-0.022-1.284,0.265-2.549,0.826-3.686c0.792-1.607,2.126-2.96,3.885-3.754
		c12.609-5.68,25.969-5.68,38.578,0c1.759,0.794,3.093,2.146,3.885,3.754c0.059,0.011,0.067,0.043,0.038,0.091
		c0.532,1.114,0.809,2.344,0.787,3.595c0,0.019,0,0.038,0,0.058v44.222v160.613h16V244.689v-52.688
		C296.001,169.947,278.055,152.002,256.001,152.002z"/>
	<path style="fill:#D5D9DE;" d="M280.001,203.78c-0.025,1.033-0.252,2.079-0.703,3.081c-1.336,2.961-4.25,4.719-7.305,4.719
		c-1.094,0-2.211-0.23-3.281-0.711c-8.438-3.805-16.984-3.805-25.422,0c-4.07,1.809-8.773,0.012-10.586-4.008
		c-0.451-1.002-0.678-2.048-0.703-3.081v44.222v160.613h16v-40.613c0-4.418,3.582-8,8-8s8,3.582,8,8v40.613h16V248.002V203.78z"/>
	<path style="fill:#B6B8BE;" d="M303.98,416.002c-0.321-4.168-3.796-7.387-7.977-7.387h-0.002h-16h-16v63.386h45.104l-0.732-8
		l-3.661-40L303.98,416.002z"/>
	<path style="fill:#888693;" d="M248.001,408.615h-16h-16h-0.002c-4.18,0-7.656,3.218-7.976,7.387l-0.732,8l-3.661,40l-0.732,8
		h45.104V408.615z"/>
	<path style="fill:#5C546A;" d="M243.29,210.869c8.438-3.805,16.984-3.805,25.422,0c1.07,0.48,2.188,0.711,3.281,0.711
		c3.055,0,5.969-1.758,7.305-4.719c0.451-1.002,0.678-2.048,0.703-3.081c0-0.02,0-0.039,0-0.058
		c0.022-1.251-0.255-2.481-0.787-3.595c-0.014-0.03-0.024-0.062-0.038-0.091c-0.792-1.607-2.126-2.96-3.885-3.754
		c-12.609-5.68-25.969-5.68-38.578,0c-1.759,0.794-3.093,2.146-3.885,3.754c-0.56,1.137-0.848,2.401-0.826,3.686
		c0,0.019,0,0.038,0,0.058c0.025,1.033,0.252,2.079,0.703,3.081C234.516,210.881,239.219,212.678,243.29,210.869z"/>
	<path style="fill:#888693;" d="M316.305,136.002h-60.304v16c22.055,0,40,17.945,40,40v52.688l15.594,15.594
		c0.139,0.139,0.269,0.286,0.406,0.426v-92.708h32v-48c-5.845,0-11.323,1.582-16.043,4.329
		C323.132,127.14,319.106,131.171,316.305,136.002z"/>
	<path style="fill:#888693;" d="M168.001,120.002c-17.648,0-32,14.355-32,32v16h32V120.002z"/>
	<path style="fill:#888693;" d="M264.001,480.001c0,4.418-3.582,8-8,8v24h48c2.227,0,4.359-0.93,5.867-2.563
		c1.516-1.637,2.281-3.828,2.109-6.051l-2.873-31.387l0,0h-45.104V480.001z"/>
	<path style="fill:#5C546A;" d="M248.001,480.001v-8h-45.104l0,0l-2.873,31.387c-0.172,2.223,0.594,4.414,2.109,6.051
		c1.508,1.633,3.641,2.563,5.867,2.563h48v-24C251.582,488.001,248.001,484.42,248.001,480.001z"/>
	<path style="fill:#E5001E;" d="M256.001,360.002c-4.418,0-8,3.582-8,8v40.613v63.386v8c0,4.418,3.582,8,8,8s8-3.582,8-8v-8v-63.386
		v-40.613C264.001,363.583,260.419,360.002,256.001,360.002z"/>
</g>
<g>
</g>
<g>
</g>
<g>
</g>
<g>
</g>
<g>
</g>
<g>
</g>
<g>
</g>
<g>
</g>
<g>
</g>
<g>
</g>
<g>
</g>
<g>
</g>
<g>
</g>
<g>
</g>
<g>
</g>
</svg>
